<?xml version="1.0" encoding="utf-8"?>
<svg width="513.00006px" height="512px" viewBox="0 0 513.00006 512" version="1.1" xmlns:xlink="http://www.w3.org/1999/xlink" xmlns="http://www.w3.org/2000/svg">
  <defs>
    <linearGradient gradientUnits="objectBoundingBox" x1="0.5" y1="0" x2="0.5" y2="1" id="gradient_1">
      <stop offset="0%" stop-color="#2CD8D5" />
      <stop offset="50%" stop-color="#6B8DD6" />
      <stop offset="100%" stop-color="#8E37D7" />
    </linearGradient>
  </defs>
  <g id="Group">
    <path d="M0 256C0 114.615 114.839 0 256.5 0C398.161 0 513 114.615 513 256C513 397.385 398.161 512 256.5 512C114.839 512 0 397.385 0 256Z" id="Mask" fill="#FFFFFF" fill-rule="evenodd" stroke="none" />
    <path d="M144.804 70.1524C80.8405 108.32 38 178.211 38 258.108C38 319.996 63.7045 375.88 105.02 415.668C109.184 413.761 112.147 412.283 112.33 411.978C112.586 411.637 114.038 410.611 115.576 409.842C117.627 408.817 118.652 407.536 119.592 404.46C120.361 401.982 122.155 398.992 127.623 393.524L127.11 383.699C126.768 377.035 126.939 372.507 127.623 369.602C128.221 367.295 129.417 364.647 130.357 363.878C131.211 363.023 131.98 361.827 131.98 361.315C131.98 360.717 136.081 355.932 141.122 350.806C146.248 345.594 151.716 339.101 153.339 336.367C154.962 333.633 157.525 330.387 158.978 329.191C160.43 327.909 162.566 326.115 163.677 325.261C164.787 324.321 168.034 322.868 170.853 321.929C173.673 320.989 176.321 320.049 176.663 319.707C177.09 319.451 176.15 317.315 174.698 314.923C173.331 312.616 172.135 310.309 172.135 309.797C172.135 309.284 171.366 307.319 170.426 305.354C168.888 302.022 168.29 301.509 163.848 300.313C160.174 299.288 157.782 297.836 154.62 294.845C152.143 292.538 149.238 288.438 147.7 285.362C146.162 282.372 143.172 274.853 141.036 268.787C138.815 262.721 135.739 254.776 134.116 251.273C132.578 247.77 130.784 242.558 130.186 239.739C129.331 235.467 129.417 233.246 130.527 226.496C131.296 222.054 132.92 216.159 134.116 213.51C135.312 210.776 136.252 207.871 136.252 207.017C136.252 206.248 138.046 203.77 140.267 201.634C142.574 199.498 145.052 197.448 145.906 197.106C146.76 196.85 147.187 195.996 146.931 195.141C146.76 194.287 145.991 190.1 145.222 185.914C144.539 181.728 143.001 171.134 141.89 162.419C140.78 153.705 139.498 142.598 139.156 137.643C138.815 132.687 138.644 128.33 138.729 127.818C138.9 127.305 139.156 123.289 139.242 118.847C139.413 114.404 139.925 108.253 140.438 105.177C141.036 102.101 141.207 99.4527 141.036 99.1964C140.78 98.9401 141.207 97.0605 141.89 94.9246C142.574 92.7887 143.257 86.8081 143.514 81.682C143.718 77.5207 144.25 72.9236 144.804 70.1524ZM355.663 63C356.744 64.3924 357.531 65.7678 357.531 66.3035C357.531 66.9869 358.898 70.4044 360.607 73.8218C362.23 77.1538 364.025 80.4004 364.452 80.8276C364.879 81.3402 365.562 83.0489 365.99 84.6722C366.417 86.2955 367.442 89.9693 368.211 92.7887C368.98 95.6081 370.005 99.6236 370.518 101.759C370.945 103.895 371.628 107.74 372.056 110.303C372.483 112.866 373.252 119.616 373.85 125.254C374.533 132.944 374.533 139.864 373.85 152.594C373.337 161.992 372.654 173.355 371.885 185.914L375.986 188.05C378.207 189.246 381.283 191.895 382.906 194.031C384.529 196.166 386.58 200.011 387.605 202.574C388.972 206.162 389.485 210.007 389.826 219.234C390.168 228.12 389.912 233.16 388.886 238.885C388.118 243.071 387.263 249.65 387.007 253.409C386.751 257.168 385.725 263.319 384.786 267.078C383.846 270.838 381.881 275.964 380.514 278.441C379.147 280.834 378.292 283.055 378.72 283.226C379.061 283.397 382.222 284.422 385.725 285.447C389.228 286.473 395.038 288.694 398.541 290.317C402.044 291.94 406.23 294.418 407.768 295.956C409.391 297.494 411.185 299.715 411.869 301.082C412.552 302.364 413.065 303.987 413.065 304.67C413.065 305.354 415.713 308.515 418.96 311.762C422.463 315.265 425.795 319.451 427.333 322.612C428.785 325.431 430.494 329.703 431.263 332.01C431.946 334.402 432.801 340.639 433.057 345.936C433.484 353.967 433.911 356.018 435.535 358.752C436.645 360.46 440.234 364.219 443.48 367.124C444.114 367.675 444.749 368.259 445.364 368.852C464.473 336.371 475.433 298.519 475.433 258.108C475.433 172.925 426.737 99.1157 355.663 63Z" id="Mask-2-Subtract" fill="url(#gradient_1)" fill-rule="evenodd" stroke="none" />
  </g>
</svg>